<svg width="100" height="47" viewBox="0 0 143 47" fill="none" xmlns="http://www.w3.org/2000/svg">
<path d="M51.8477 41.0901C52.0465 39.5926 52.2937 37.7161 52.5437 35.8423C52.9602 32.7352 53.3767 29.6281 53.7932 26.5238C54.2528 23.0857 54.7096 19.645 55.1691 16.2069C55.3331 14.9764 55.4755 13.7405 55.6824 12.518C56.1607 9.71252 58.1439 7.75326 60.9333 7.27545C63.4836 6.84036 66.1332 8.18568 67.4527 10.588C68.7372 12.9237 70.0244 15.254 71.3116 17.5869C73.1416 20.9049 74.9716 24.2228 76.8044 27.5381C76.8957 27.7036 76.9441 27.9785 77.1752 27.9411C77.4413 27.8984 77.3983 27.6075 77.4278 27.402C78.0647 22.6346 78.6989 17.8672 79.3277 13.0999C79.4406 12.2403 79.5024 11.3755 79.8249 10.556C80.803 8.08158 83.6005 6.69088 86.2152 7.39023C88.8353 8.08959 90.5068 10.6681 90.1359 13.3107C89.6119 17.0397 89.147 20.7741 88.6472 24.5058C88.15 28.2161 87.6421 31.9264 87.1396 35.6367C86.8601 37.7081 86.6371 39.7875 86.2851 41.8455C85.847 44.4267 83.7805 46.3993 81.2464 46.7971C78.629 47.2081 76.103 45.9936 74.8131 43.6873C71.6448 38.0204 68.4819 32.3508 65.319 26.6812C65.2706 26.5958 65.233 26.5024 65.1712 26.425C65.0771 26.3102 65.0717 26.0753 64.8782 26.0967C64.6418 26.126 64.6848 26.3583 64.6633 26.5238C63.9485 31.7983 63.2417 37.0728 62.5161 42.3447C62.148 45.0166 59.6004 47.072 56.9777 46.8638C53.9545 46.6209 51.7966 44.3547 51.8503 41.0874L51.8477 41.0901Z" fill="url(#paint0_linear_3160_134)"/>
<path d="M38.0605 46.9627C36.3111 46.9627 34.5617 46.968 32.8096 46.9627C30.5819 46.9547 28.776 45.1903 28.7465 43.0041C28.7169 40.7913 30.5039 38.9281 32.7424 38.9147C36.3004 38.8907 39.861 38.8907 43.4217 38.9147C45.6602 38.9308 47.423 40.7379 47.4096 42.932C47.3961 45.1903 45.636 46.952 43.3706 46.9627C41.5997 46.9707 39.8315 46.9627 38.0605 46.9627Z" fill="#5B59FC"/>
<path d="M121.669 4.40331C122.331 3.81339 123.271 3.06599 124.494 2.34795C124.784 2.17711 125.432 1.80875 126.24 1.44572C127.372 0.941228 129.411 0.0309976 131.892 0.00163538C132.728 -0.0090418 134.99 -0.0063725 137.226 1.32027C140.101 3.02328 142.558 6.68555 141.905 10.4973C141.735 11.485 141.115 13.8953 138.889 15.3421C136.869 16.6554 133.845 16.9623 132.265 15.633C131.9 15.3261 131.978 15.2754 130.597 12.7876C129.747 11.2554 129.309 10.4653 128.64 9.58975C127.547 8.15901 126.437 7.28081 125.824 6.80033C124.338 5.63919 122.871 4.89179 121.664 4.40864L121.669 4.40331Z" fill="#36CDFF"/>
<path d="M34.5481 15.8974C33.6183 11.4423 29.8535 8.22048 25.0244 7.46507C23.0224 7.15277 21.015 7.27822 18.8921 7.22217C17.3442 7.30759 15.6727 7.12607 14.0039 7.34229C8.84436 8.00961 4.37542 11.9548 3.32201 16.9998C2.55882 20.6487 2.27397 24.3751 1.75264 28.064C1.31193 31.1871 0.903463 34.3155 0.486935 37.4413C0.309575 38.7706 0.0489096 40.0999 0.00322596 41.4345C-0.0988905 44.3201 2.23635 46.7198 5.15742 46.8826C7.82588 47.0347 10.3439 44.9687 10.7093 42.214C11.0049 39.9851 11.3328 37.7616 11.6096 35.5327C11.6606 35.127 11.8245 35.0816 12.1712 35.0843C14.0819 35.0976 15.9925 35.0896 17.9032 35.0923C19.9643 35.095 21.9824 34.804 23.9468 34.1847C32.7665 31.398 36.0342 23.0111 34.5481 15.8947V15.8974ZM23.4201 21.2039C22.8746 24.6287 20.6872 26.5292 17.183 26.7C16.6079 26.7294 16.0301 26.7027 15.4551 26.7027C15.4551 26.708 15.4551 26.7134 15.4551 26.7187C14.7402 26.7187 14.0227 26.7054 13.3079 26.7241C12.9666 26.7321 12.792 26.668 12.8484 26.2676C13.1816 23.9079 13.4396 21.5376 13.8427 19.1913C14.1813 17.216 16.0839 15.7879 18.1585 15.8173C19.5478 15.8387 20.8941 16.0575 22.0093 16.9758C23.3583 18.0862 23.6808 19.5864 23.4228 21.2013L23.4201 21.2039Z" fill="#5B59FC"/>
<path d="M128.141 20.9369C127.679 17.0611 126.094 13.7084 123.052 11.1406C120.528 9.01046 117.559 7.88401 114.288 7.48896L114.299 7.44892C111.225 7.12059 108.124 6.98179 105.074 7.38218C99.9599 8.05485 96.5095 10.9777 94.6956 15.7611C93.8894 17.8885 93.8571 20.1681 93.5347 22.3836C93.0752 25.5227 92.7177 28.6778 92.2582 31.8196C91.8524 34.5903 92.0916 37.257 93.3949 39.7634C95.5421 43.8848 98.9468 46.3246 103.604 46.7863C107.234 47.1467 110.825 46.7196 114.299 45.5424L114.288 45.4997C114.364 45.4837 114.444 45.4757 114.517 45.449C119.394 43.6793 123.095 40.5375 125.468 35.957C127.913 31.2377 128.765 26.1954 128.139 20.9315L128.141 20.9369ZM117.4 26.0326C117.177 28.0959 116.78 30.1246 115.947 32.0411C115.535 32.9861 115.011 33.8643 114.299 34.6224C114.299 34.6571 114.294 34.6918 114.291 34.7265C112.19 36.9633 109.492 37.6787 106.53 37.7214C104.077 37.7561 102.516 35.9009 102.876 33.4959C103.341 30.3755 103.725 27.2444 104.147 24.1187C104.335 22.7306 104.483 21.3373 104.738 19.9626C105.13 17.8512 106.984 16.3831 109.15 16.3617C110.916 16.343 112.63 16.6046 114.291 17.2079C114.294 17.2372 114.299 17.2666 114.305 17.296C116.019 17.974 116.86 19.3486 117.277 21.0276C117.688 22.6799 117.586 24.3589 117.403 26.0326H117.4Z" fill="#3AC4FF"/>
<defs>
<linearGradient id="paint0_linear_3160_134" x1="51.8477" y1="27.0363" x2="90.1873" y2="27.0363" gradientUnits="userSpaceOnUse">
<stop stop-color="#5B59FC"/>
<stop offset="1" stop-color="#36CDFF"/>
</linearGradient>
</defs>
</svg>
