<svg width="305" height="66" viewBox="0 0 305 66" fill="none" xmlns="http://www.w3.org/2000/svg">
<path d="M15.24 0.912H18.456V16.824H15.24V0.912ZM17.544 7.104H21.408V9.72H17.544V7.104ZM9.048 2.568H12.456C12.456 8.616 8.76 12.768 2.136 14.688L0.792 12.144C6.24 10.656 9.048 7.68 9.048 4.152V2.568ZM1.752 2.568H10.776V5.136H1.752V2.568ZM4.08 20.208H19.2V22.752H4.08V20.208ZM4.08 15.216H7.296V21.336H4.08V15.216ZM38.4461 0.912H41.6381V17.28H38.4461V0.912ZM23.5901 2.496H35.3261V5.04H23.5901V2.496ZM23.3501 14.64L23.0381 12.024C26.6141 12.024 31.6061 11.976 35.6141 11.52L35.7821 13.848C31.6541 14.544 26.8781 14.64 23.3501 14.64ZM25.3421 4.728H28.4141V12.336H25.3421V4.728ZM30.5021 4.728H33.5501V12.336H30.5021V4.728ZM35.7581 4.8H40.1741V7.344H35.7581V4.8ZM35.7581 9.264H40.1741V11.832H35.7581V9.264ZM26.9501 20.208H42.1421V22.752H26.9501V20.208ZM26.9501 16.08H30.1661V22.128H26.9501V16.08ZM59.3723 0.912H62.5403V23.136H59.3723V0.912ZM61.8203 9.576H65.7563V12.24H61.8203V9.576ZM45.0203 4.2H57.9563V6.744H45.0203V4.2ZM51.5243 7.992C54.7643 7.992 57.1643 10.2 57.1643 13.296C57.1643 16.392 54.7643 18.6 51.5243 18.6C48.2843 18.6 45.8843 16.392 45.8843 13.296C45.8843 10.2 48.2843 7.992 51.5243 7.992ZM51.5243 10.584C50.0123 10.584 48.9323 11.592 48.9323 13.296C48.9323 15 50.0123 16.008 51.5243 16.008C53.0363 16.008 54.1163 15 54.1163 13.296C54.1163 11.592 53.0363 10.584 51.5243 10.584ZM49.9163 1.272H53.1083V5.16H49.9163V1.272ZM69.2584 2.784H83.3464V5.352H69.2584V2.784ZM67.2184 17.88H87.3064V20.472H67.2184V17.88ZM74.3224 10.248H77.5144V19.152H74.3224V10.248ZM82.1944 2.784H85.3864V4.92C85.3864 7.704 85.3864 10.824 84.4984 15.576L81.3064 15.216C82.1944 10.8 82.1944 7.584 82.1944 4.92V2.784ZM110.634 0.912H113.826V17.28H110.634V0.912ZM95.7776 2.496H107.514V5.04H95.7776V2.496ZM95.5376 14.64L95.2256 12.024C98.8016 12.024 103.794 11.976 107.802 11.52L107.97 13.848C103.842 14.544 99.0656 14.64 95.5376 14.64ZM97.5296 4.728H100.602V12.336H97.5296V4.728ZM102.69 4.728H105.738V12.336H102.69V4.728ZM107.946 4.8H112.362V7.344H107.946V4.8ZM107.946 9.264H112.362V11.832H107.946V9.264ZM99.1376 20.208H114.33V22.752H99.1376V20.208ZM99.1376 16.08H102.354V22.128H99.1376V16.08ZM132.616 0.887999H135.808V23.184H132.616V0.887999ZM118.504 15.408H120.472C124.408 15.408 127.552 15.264 131.08 14.664L131.392 17.232C127.792 17.88 124.528 18 120.472 18H118.504V15.408ZM118.48 2.784H128.968V11.376H121.744V16.368H118.504V8.856H125.704V5.328H118.48V2.784ZM153.638 0.912H156.806V23.136H153.638V0.912ZM156.086 9.576H160.022V12.24H156.086V9.576ZM139.286 4.2H152.222V6.744H139.286V4.2ZM145.79 7.992C149.03 7.992 151.43 10.2 151.43 13.296C151.43 16.392 149.03 18.6 145.79 18.6C142.55 18.6 140.15 16.392 140.15 13.296C140.15 10.2 142.55 7.992 145.79 7.992ZM145.79 10.584C144.278 10.584 143.198 11.592 143.198 13.296C143.198 15 144.278 16.008 145.79 16.008C147.302 16.008 148.382 15 148.382 13.296C148.382 11.592 147.302 10.584 145.79 10.584ZM144.182 1.272H147.374V5.16H144.182V1.272ZM177.564 0.912H180.612V23.136H177.564V0.912ZM168.756 9.432H173.508V11.952H168.756V9.432ZM172.884 1.392H175.86V22.152H172.884V1.392ZM168.036 3.528H171.108C171.108 9.864 169.212 14.904 162.972 18.528L161.172 16.296C166.236 13.248 168.036 9.552 168.036 4.176V3.528ZM162.42 3.528H169.044V6.072H162.42V3.528ZM277.828 18.096H297.94V20.688H277.828V18.096ZM286.252 13.896H289.444V19.152H286.252V13.896ZM280.084 2.352H295.684V9.744H283.3V13.488H280.132V7.248H292.516V4.872H280.084V2.352ZM280.132 12.216H296.188V14.784H280.132V12.216ZM304.129 18.6136L304.018 19.5511C303.939 20.267 303.797 20.9943 303.592 21.733C303.393 22.4773 303.183 23.1619 302.962 23.7869C302.74 24.4119 302.561 24.9034 302.425 25.2614H300.345C300.425 24.9148 300.533 24.4432 300.669 23.8466C300.811 23.25 300.947 22.5795 301.078 21.8352C301.209 21.0909 301.297 20.3352 301.342 19.5682L301.402 18.6136H304.129ZM36.3177 53.304H39.4857V57.096H36.3177V53.304ZM33.5337 56.664H36.7017V58.488H45.5817V56.664H48.7497V64.896H33.5337V56.664ZM36.7017 60.888V62.4H45.5817V60.888H36.7017ZM45.5577 42.912H48.7497V55.728H45.5577V42.912ZM30.6297 54.792L30.2697 52.272C34.3497 52.272 39.7017 52.248 44.3817 51.648L44.5737 53.904C39.7977 54.744 34.6377 54.792 30.6297 54.792ZM36.0537 43.488H38.5977V44.352C38.5977 47.712 36.6057 50.472 32.3817 51.384L31.0137 48.984C34.5417 48.24 36.0537 46.344 36.0537 44.352V43.488ZM36.7977 43.488H39.3657V44.352C39.3657 46.224 40.9017 48 44.3097 48.624L42.9897 51.048C38.8377 50.184 36.7977 47.568 36.7977 44.352V43.488ZM54.3638 44.784H68.4518V47.352H54.3638V44.784ZM52.3238 59.88H72.4118V62.472H52.3238V59.88ZM59.4278 52.248H62.6198V61.152H59.4278V52.248ZM67.2998 44.784H70.4918V46.92C70.4918 49.704 70.4918 52.824 69.6038 57.576L66.4118 57.216C67.2998 52.8 67.2998 49.584 67.2998 46.92V44.784ZM95.4991 42.912H98.6431V65.136H95.4991V42.912ZM96.9151 51.12H100.827V53.736H96.9151V51.12ZM80.4511 44.928H83.0671V50.04H84.3871V44.928H86.9551V60H80.4511V44.928ZM83.0671 52.536V57.432H84.3871V52.536H83.0671ZM87.8191 44.928H90.3871V50.04H91.7311V44.928H94.3471V60H87.8191V44.928ZM90.3871 52.536V57.432H91.7311V52.536H90.3871ZM102.433 60.024H122.545V62.64H102.433V60.024ZM104.689 44.4H120.289V51.816H107.905V55.536H104.737V49.32H117.121V46.944H104.689V44.4ZM104.737 54.288H120.793V56.832H104.737V54.288ZM140.591 42.912H143.639V65.136H140.591V42.912ZM131.783 51.432H136.535V53.952H131.783V51.432ZM135.911 43.392H138.887V64.152H135.911V43.392ZM131.063 45.528H134.135C134.135 51.864 132.239 56.904 125.999 60.528L124.199 58.296C129.263 55.248 131.063 51.552 131.063 46.176V45.528ZM125.447 45.528H132.071V48.072H125.447V45.528ZM248.683 60.096H268.795V62.688H248.683V60.096ZM257.107 55.896H260.299V61.152H257.107V55.896ZM250.939 44.352H266.539V51.744H254.155V55.488H250.987V49.248H263.371V46.872H250.939V44.352ZM250.987 54.216H267.043V56.784H250.987V54.216ZM273.263 63.1875C272.746 63.1875 272.303 63.0057 271.934 62.642C271.564 62.2784 271.382 61.8352 271.388 61.3125C271.382 60.8011 271.564 60.3636 271.934 60C272.303 59.6364 272.746 59.4545 273.263 59.4545C273.763 59.4545 274.198 59.6364 274.567 60C274.942 60.3636 275.132 60.8011 275.138 61.3125C275.132 61.6591 275.042 61.9744 274.865 62.2585C274.695 62.5426 274.468 62.7699 274.184 62.9403C273.905 63.1051 273.598 63.1875 273.263 63.1875Z" fill="black"/>
<path d="M205.547 0.912H208.571V23.136H205.547V0.912ZM202.571 9.456H206.267V12.024H202.571V9.456ZM200.579 1.296H203.531V22.08H200.579V1.296ZM190.115 15.504H191.675C194.411 15.504 196.691 15.408 199.331 14.928L199.571 17.52C196.883 18.048 194.531 18.12 191.675 18.12H190.115V15.504ZM190.115 3.48H198.323V6.048H193.283V16.752H190.115V3.48ZM216.993 2.616H219.585V5.856C219.585 11.568 217.617 16.728 213.201 18.768L211.305 16.128C215.169 14.448 216.993 10.176 216.993 5.856V2.616ZM217.617 2.616H220.209V5.856C220.209 9.96 221.961 14.04 225.753 15.672L223.881 18.24C219.585 16.272 217.617 11.328 217.617 5.856V2.616ZM226.809 0.887999H230.025V23.184H226.809V0.887999ZM233.672 17.976H253.784V20.568H233.672V17.976ZM242.096 13.224H245.288V18.6H242.096V13.224ZM235.784 2.328H238.952V5.736H248.432V2.328H251.6V13.896H235.784V2.328ZM238.952 8.232V11.352H248.432V8.232H238.952ZM258.078 11.16H273.702V13.704H258.078V11.16ZM255.75 17.856H275.862V20.472H255.75V17.856ZM258.078 2.736H273.534V5.328H261.246V12.216H258.078V2.736ZM155.522 63H152.147L158.292 45.5455H162.195L168.348 63H164.973L160.311 49.125H160.175L155.522 63ZM155.632 56.1562H164.837V58.696H155.632V56.1562ZM173.809 45.5455V63H170.647V45.5455H173.809ZM187.417 46.416H189.937V48.912C189.937 53.928 187.825 59.04 183.745 60.96L181.945 58.44C185.617 56.712 187.417 52.56 187.417 48.912V46.416ZM188.089 46.416H190.609V48.912C190.609 52.272 192.337 56.208 195.985 57.888L194.233 60.408C190.153 58.512 188.089 53.64 188.089 48.912V46.416ZM182.809 45.048H195.001V47.664H182.809V45.048ZM196.633 42.912H199.849V65.136H196.633V42.912ZM199.129 51.384H203.065V54.024H199.129V51.384ZM204.527 53.352H224.639V55.896H204.527V53.352ZM212.999 50.016H216.167V54.336H212.999V50.016ZM206.951 49.008H222.359V51.528H206.951V49.008ZM206.951 43.872H222.239V46.368H210.119V50.616H206.951V43.872ZM214.511 57C219.311 57 222.215 58.464 222.215 61.08C222.215 63.696 219.311 65.16 214.511 65.16C209.711 65.16 206.783 63.696 206.783 61.08C206.783 58.464 209.711 57 214.511 57ZM214.511 59.4C211.535 59.4 210.023 59.952 210.023 61.08C210.023 62.232 211.535 62.736 214.511 62.736C217.487 62.736 218.999 62.232 218.999 61.08C218.999 59.952 217.487 59.4 214.511 59.4ZM231.717 56.064H234.909V59.664H231.717V56.064ZM241.053 42.912H244.269V65.136H241.053V42.912ZM243.141 51.936H247.053V54.576H243.141V51.936ZM226.725 61.44L226.341 58.872C230.181 58.872 235.461 58.848 239.949 58.224L240.189 60.528C235.509 61.44 230.469 61.44 226.725 61.44ZM226.749 45.36H239.829V47.856H226.749V45.36ZM233.325 48.744C236.493 48.744 238.749 50.424 238.749 52.896C238.749 55.392 236.493 57.072 233.325 57.072C230.133 57.072 227.901 55.392 227.901 52.896C227.901 50.424 230.133 48.744 233.325 48.744ZM233.325 51.144C231.861 51.144 230.925 51.768 230.925 52.896C230.925 54.048 231.861 54.672 233.325 54.672C234.765 54.672 235.725 54.048 235.725 52.896C235.725 51.768 234.765 51.144 233.325 51.144ZM231.717 43.032H234.909V47.232H231.717V43.032Z" fill="#5B59FC"/>
</svg>
